<svg id="Layer_2" data-name="Layer 2" xmlns="http://www.w3.org/2000/svg" xmlns:xlink="http://www.w3.org/1999/xlink" viewBox="0 0 195.05 92.55"><defs><style>.cls-1,.cls-14,.cls-16{fill:none;}.cls-14,.cls-2{opacity:0.1;}.cls-11,.cls-12,.cls-3,.cls-4{fill:#5d7385;}.cls-4{opacity:0.7;font-size:6px;font-family:RobotoMono-Bold, Roboto Mono;}.cls-11,.cls-4,.cls-8{font-weight:700;}.cls-5{clip-path:url(#clip-path);}.cls-11,.cls-12,.cls-16,.cls-6{opacity:0.3;}.cls-7,.cls-8{fill:#fff;}.cls-11,.cls-8{font-size:7.51px;font-family:Roboto-Bold, Roboto;}.cls-8{letter-spacing:0.05em;}.cls-9{letter-spacing:0.02em;}.cls-10,.cls-11{letter-spacing:0.05em;}.cls-12{font-size:4px;font-family:Roboto-Regular, Roboto;}.cls-13{letter-spacing:-0.01em;}.cls-14,.cls-16{stroke:#5d7385;stroke-miterlimit:10;}.cls-14{stroke-width:0.5px;}.cls-15{opacity:0.2;}</style><clipPath id="clip-path"><rect class="cls-1" x="-250.41" width="195.05" height="92.55"/></clipPath></defs><title>illustrations</title><g class="cls-2"><rect class="cls-3" width="195.05" height="92.55" rx="8" ry="8"/></g><text class="cls-4" transform="translate(12.33 41.38)">.u-pt1<tspan x="0" y="7.2">.u-truncate</tspan><tspan x="0" y="14.4">.g-1of8</tspan><tspan x="0" y="21.6">.u-hasHidden</tspan><tspan x="0" y="28.8">...</tspan></text><text class="cls-4" transform="translate(12.33 31.14)">/* reset */</text><g class="cls-5"><g class="cls-2"><rect class="cls-3" x="15.08" y="16.8" width="22.09" height="22.09" rx="5.01" ry="5.01"/></g></g><g class="cls-6"><rect class="cls-3" x="73.58" y="24" width="45.5" height="17.38" rx="4" ry="4"/></g><rect class="cls-7" x="136.25" y="24" width="52.33" height="44.75" rx="2" ry="2"/><text class="cls-8" transform="translate(78.74 35.19)">PRIMA<tspan class="cls-9" x="25.31" y="0">R</tspan><tspan class="cls-10" x="30.45" y="0">Y</tspan></text><g class="cls-6"><path class="cls-3" d="M115.08,49.38a3,3,0,0,1,3,3v9.38a3,3,0,0,1-3,3H77.58a3,3,0,0,1-3-3V52.38a3,3,0,0,1,3-3h37.5m0-1H77.58a4,4,0,0,0-4,4v9.38a4,4,0,0,0,4,4h37.5a4,4,0,0,0,4-4V52.38a4,4,0,0,0-4-4Z"/></g><text class="cls-11" transform="translate(79.96 60.32)">OUTLINE</text><text class="cls-12" transform="translate(144.53 29.15)">ca<tspan class="cls-13" x="4.32" y="0">r</tspan><tspan x="5.66" y="0">d-header</tspan></text><text class="cls-12" transform="translate(139.16 46.38)">ca<tspan class="cls-13" x="4.32" y="0">r</tspan><tspan x="5.66" y="0">d-content</tspan></text><text class="cls-12" transform="translate(139.16 65.76)">ca<tspan class="cls-13" x="4.32" y="0">r</tspan><tspan x="5.66" y="0">d-footer</tspan></text><line class="cls-14" x1="136.25" y1="32.25" x2="188.58" y2="32.25"/><line class="cls-14" x1="136.25" y1="59" x2="188.58" y2="59"/><g class="cls-6"><rect class="cls-3" x="173.25" y="61.59" width="12.75" height="5.33" rx="1" ry="1"/></g><g class="cls-15"><rect class="cls-3" x="138.33" y="26.11" width="4.37" height="4.37" rx="1" ry="1"/></g><g class="cls-6"><path class="cls-3" d="M170.58,62.09a.5.5,0,0,1,.5.5v3.33a.5.5,0,0,1-.5.5h-7.17a.5.5,0,0,1-.5-.5V62.59a.5.5,0,0,1,.5-.5h7.17m0-.5h-7.17a1,1,0,0,0-1,1v3.33a1,1,0,0,0,1,1h7.17a1,1,0,0,0,1-1V62.59a1,1,0,0,0-1-1Z"/></g><line class="cls-16" x1="64.92" x2="64.92" y2="92.55"/><line class="cls-16" x1="127.67" x2="127.67" y2="92.55"/></svg>