<svg id="Layer_2" data-name="Layer 2" xmlns="http://www.w3.org/2000/svg" viewBox="0 0 195.05 92.55"><defs><style>.cls-1,.cls-3{opacity:0.1;}.cls-10,.cls-2,.cls-3,.cls-4{fill:#5d7385;}.cls-10,.cls-4{font-size:8px;}.cls-4,.cls-7{font-family:RobotoMono-Regular, Roboto Mono;}.cls-10,.cls-5,.cls-9{font-family:RobotoMono-Bold, Roboto Mono;}.cls-10,.cls-6,.cls-9{font-weight:700;}.cls-8{letter-spacing:3.9em;}.cls-10{opacity:0.5;}.cls-11{opacity:0.2;}</style></defs><title>illustrations</title><g class="cls-1"><rect class="cls-2" width="195.05" height="92.55" rx="8" ry="8"/></g><path class="cls-3" d="M187,0H8A8,8,0,0,0,0,8v9.11H195V8A8,8,0,0,0,187,0Z"/><text class="cls-4" transform="translate(18.18 33.19)">&lt;?<tspan class="cls-5"><tspan class="cls-6" x="0" y="9.6">snippet(</tspan><tspan class="cls-7" x="38.41" y="9.6">&apos;header&apos;</tspan><tspan class="cls-6" x="76.81" y="9.6">);</tspan><tspan class="cls-6" x="0" y="19.2">snippet(</tspan><tspan class="cls-7" x="38.41" y="19.2">&apos;render_sections&apos;,</tspan></tspan><tspan class="cls-8" x="0" y="28.8">	</tspan><tspan x="36" y="28.8">[&apos;p&apos; =&gt; $page]</tspan><tspan class="cls-9" x="103.21" y="28.8">);</tspan><tspan class="cls-5"><tspan class="cls-6" x="0" y="38.4">snippet(</tspan><tspan class="cls-7" x="38.41" y="38.4">&apos;footer&apos;</tspan><tspan class="cls-6" x="76.82" y="38.4">);</tspan></tspan><tspan x="0" y="48">?&gt;</tspan></text><text class="cls-10" transform="translate(36.33 11.05)">default.php</text><g class="cls-11"><circle class="cls-2" cx="12.33" cy="8.55" r="2.5"/><circle class="cls-2" cx="19.83" cy="8.55" r="2.5"/><circle class="cls-2" cx="27.33" cy="8.55" r="2.5"/></g></svg>