<svg id="Layer_2" data-name="Layer 2" xmlns="http://www.w3.org/2000/svg" xmlns:xlink="http://www.w3.org/1999/xlink" viewBox="0 0 195.05 92.55"><defs><style>.cls-1,.cls-10,.cls-5,.cls-6{fill:none;}.cls-2{opacity:0.1;}.cls-3,.cls-7{fill:#5d7385;}.cls-4{clip-path:url(#clip-path);}.cls-10,.cls-5{stroke:#5d7385;}.cls-5,.cls-6{stroke-miterlimit:10;}.cls-10,.cls-5,.cls-6{stroke-width:0.72px;}.cls-6{stroke:#fff;}.cls-7{font-size:7.51px;font-family:Roboto-Regular, Roboto;}.cls-8{letter-spacing:-0.01em;}.cls-9{opacity:0.3;}.cls-10{stroke-linejoin:round;}.cls-11{letter-spacing:-0.01em;}</style><clipPath id="clip-path"><rect class="cls-1" width="195.05" height="92.55"/></clipPath></defs><title>illustrations</title><g class="cls-2"><rect class="cls-3" width="195.05" height="92.55" rx="8" ry="8"/></g><g class="cls-4"><rect class="cls-5" x="87.41" y="20.71" width="39.27" height="39.27" rx="7.87" ry="7.87"/><rect class="cls-3" x="95.99" y="29.3" width="22.09" height="22.09" rx="5.01" ry="5.01"/><line class="cls-6" x1="107.04" y1="44.88" x2="107.04" y2="35.81"/><line class="cls-6" x1="111.57" y1="40.35" x2="102.51" y2="40.35"/><text class="cls-7" transform="translate(95.97 70.77)">Add to<tspan x="-11.65" y="9.02">Home Sc</tspan><tspan class="cls-8" x="19.06" y="9.02">r</tspan><tspan x="21.57" y="9.02">een</tspan></text><g class="cls-9"><rect class="cls-5" x="36.6" y="20.71" width="39.27" height="39.27" rx="7.87" ry="7.87"/><path class="cls-5" d="M58.24,39.28a3.42,3.42,0,0,0-3.84,0"/><circle class="cls-5" cx="49.05" cy="40.35" r="5.46"/><circle class="cls-5" cx="63.59" cy="40.35" r="5.46"/><line class="cls-5" x1="43.59" y1="40.35" x2="41.95" y2="40.35"/><line class="cls-5" x1="70.69" y1="40.35" x2="69.05" y2="40.35"/><rect class="cls-5" x="-14.21" y="20.71" width="39.27" height="39.27" rx="7.87" ry="7.87"/><rect class="cls-5" x="138.21" y="20.71" width="39.27" height="39.27" rx="7.87" ry="7.87"/><rect class="cls-5" x="188.32" y="20.71" width="39.27" height="39.27" rx="7.87" ry="7.87"/><polyline class="cls-5" points="162.2 47.63 166.85 47.63 166.85 32.71 162.33 28.19 153.37 28.19 153.37 32.84"/><polygon class="cls-10" points="162.33 28.19 162.33 32.71 166.85 32.71 162.33 28.19"/><polygon class="cls-5" points="157.69 32.84 148.72 32.84 148.72 52.28 162.2 52.28 162.2 37.36 157.69 32.84"/><polygon class="cls-10" points="157.69 32.84 157.69 37.36 162.2 37.36 157.69 32.84"/><path class="cls-5" d="M5.83,49.68a2.55,2.55,0,0,1,2.55-2.55l6,0a2.55,2.55,0,0,0,2.55-2.55V33.18a2.55,2.55,0,0,0-2.55-2.55h-6a2.55,2.55,0,0,0-2.55,2.55Z"/><path class="cls-5" d="M5.83,49.68a2.55,2.55,0,0,0-2.55-2.55l-6,0a2.55,2.55,0,0,1-2.55-2.55V33.18a2.55,2.55,0,0,1,2.55-2.55h6a2.55,2.55,0,0,1,2.55,2.55Z"/><text class="cls-7" transform="translate(-11.81 70.77)">Bookmark</text><text class="cls-7" transform="translate(45.25 70.77)">Add to<tspan x="-10" y="9.02">Reading List</tspan></text><text class="cls-7" transform="translate(149.33 70.77)">Co<tspan class="cls-11" x="9.03" y="0">p</tspan><tspan x="13.26" y="0">y</tspan></text></g></g></svg>